<svg xmlns="http://www.w3.org/2000/svg" id="Calque_1" width="897" height="331" viewBox="0 0 897.4 331"><style>.a{fill:#4A7CC6;}.b{fill:#FFF;}.c{fill:#AAC851;}</style><path d="M189.5 16.5C107.2 2 28.7 56.9 14.2 139.2c-14.5 82.3 40.4 160.8 122.7 175.3 82.3 14.5 160.8-40.4 175.3-122.7C326.7 109.5 271.8 31 189.5 16.5z" class="a"/><path d="M36.4 143.2c-12.3 69.7 34.3 136.2 104 148.5 69.7 12.3 136.2-34.3 148.5-104 12.3-69.7-34.3-136.2-104-148.5C115.2 27 48.7 73.5 36.4 143.2z" class="b"/><path d="M176.3 116.7l7.3-4.6c2.3-1.5 1.3-5.1-1.5-5.1h-29.1c-2.2 0-4-1.9-4.2-4l-2.2-29.4c-0.2-2.7-3.8-3.5-5.2-1.2l-18.4 31.1c-1.1 1.9-3.7 3.5-5.9 3.5H85.2c-2.5 0-3.7 3-2 4.7l19.5 19.5c1.5 1.5 1.9 4.3 0.8 6.2l-16.2 29.4c-1.4 2.5 1.5 5.2 3.9 3.7l23.7-15c2.1-1.3 4.7 0.5 4.2 2.9l-15.8 74.5c-0.4 1.7 0.9 3.3 2.7 3.3h34.1c4.2 0 8.4-3.4 9.2-7.5l7.2-33.7h44.4c4.2 0 9.6-2.8 12-6.3l11.7-17.2c1.3-1.8-0.1-4.3-2.3-4.3h-56.4c-1.8 0-3.1-1.6-2.7-3.3l2.5-11.9c0.3-1.3 1.4-2.2 2.7-2.2h63.9c4.2 0 9.6-2.8 11.9-6.3l11.7-17.2c1.3-1.8-0.1-4.3-2.3-4.3h-76C175 121.8 173.9 118.2 176.3 116.7z" class="a"/><path d="M395.1 86.7h90.6l-4.6 21.8h-55.2l-2.9 13.7h50.9l-4.6 21.8h-50.9l-6.8 32.2h-35.3L395.1 86.7z" class="b"/><path d="M550.6 83.5c21.4 0 60.8 1.5 51 47.8 -9.8 46.3-49.9 47.9-71.3 47.9 -21.4 0-60.8-1.5-51-47.8C489.1 85 529.2 83.5 550.6 83.5zM535.1 156.7c14.4 0 25.1-7.1 28.9-25.3 3.9-18.2-3.8-25.3-18.2-25.3 -14.4 0-25.1 7.1-28.9 25.3C513 149.5 520.6 156.7 535.1 156.7z" class="b"/><path d="M679.3 83.5c21.4 0 60.8 1.5 51 47.8 -9.8 46.3-49.9 47.9-71.3 47.9 -21.4 0-60.8-1.5-51-47.8C617.9 85 657.9 83.5 679.3 83.5zM663.8 156.7c14.4 0 25.1-7.1 28.9-25.3 3.9-18.2-3.8-25.3-18.2-25.3 -14.4 0-25.1 7.1-28.9 25.3C641.8 149.5 649.4 156.7 663.8 156.7z" class="b"/><path d="M769.8 109.2h-32.7l4.8-22.5h100.7l-4.8 22.5h-32.7l-14.2 66.9h-35.3L769.8 109.2z" class="b"/><path d="M443.3 263.2h-9.9l12-56.2 -40.7 56.2h-8.3l-16.8-56.8 -12.1 56.8h-9.9l15.4-72.4h12.6l17.7 59.1 42.8-59.1h12.5L443.3 263.2z" class="c"/><path d="M512.7 263.2h-58.9l15.4-72.4h58.1l-2 9.2h-48.3l-4.5 21.1h46.5l-2 9.2h-46.5l-5 23.6h49.1L512.7 263.2z" class="c"/><path d="M585.9 263.2l-11.3 0 -0.4-0.6c-0.9-1.4-1.1-4.6 1-15.2 1.1-5.8 0.8-9.5-1-11.7 -1.8-2.2-5.3-3.2-11.2-3.2h-27l-6.5 30.7h-9.9l15.4-72.4h39.1c8.4 0 14.4 2.1 17.6 6.1 2.8 3.5 3.6 8.3 2.3 14.3 -1.6 7.6-7 13.8-14.3 16.7 1.8 0.8 3.2 1.8 4.1 3.2 2.6 3.7 2.4 9.3 1.2 16.5 -1.6 9.3-1.3 12.8-0.9 13.4L585.9 263.2zM538 223.3h29c9.3 0 14.9-4.2 16.7-12.6 0.7-3.4 0.4-5.9-1-7.6 -1.6-2-4.8-3-9.5-3h-30.2L538 223.3z" class="c"/><path d="M625.9 264.9c-11.5 0-20.4-3.6-25.9-10.3 -5.5-6.8-7.1-16.5-4.7-27.9 3.9-18.1 20-37.7 46.2-37.7 10.6 0 19.4 3.2 24.6 8.9 4.2 4.6 5.9 10.6 5.2 17.8l-0.1 1.2h-9.8l0.1-1.4c0.2-4.7-1-8.5-3.8-11.4 -3.6-3.8-9.9-5.9-17.7-5.9 -18 0-30.5 10.6-34.4 29 -1.9 8.9-0.7 16.5 3.2 21.4 3.8 4.6 10 7 18.4 7 14.9 0 25.2-7 30.7-20.9l0.3-0.8h9.9l-0.5 1.7C662.2 252.9 645.1 264.9 625.9 264.9z" class="c"/><path d="M736.5 263.2h-11.1l-4.8-21.2h-35l-14 21.2h-10.9l48.2-72.4h10.1L736.5 263.2zM691.7 232.8h26.8l-6.9-30.2L691.7 232.8z" class="c"/><path d="M768.8 263.2h-9.9l13.4-63.1h-27.4l2-9.2h64.6l-2 9.2h-27.4L768.8 263.2z" class="c"/><path d="M835.2 264.9c-11.5 0-20.9-3.9-26.6-10.9 -5.5-6.8-7.1-16.2-4.8-27.3 5.5-26 27.6-37.7 47-37.7 11.5 0 20.9 3.9 26.6 10.9 5.5 6.8 7.2 16.2 4.8 27.3C876.6 253.3 854.6 264.9 835.2 264.9zM849.4 198.3c-13.4 0-30.7 7.6-35.2 29 -1.9 8.8-0.8 15.8 3.3 20.8 4 4.9 10.8 7.7 19.2 7.7 13.4 0 30.7-7.6 35.2-29 1.9-8.8 0.8-15.8-3.3-20.8C864.5 201 857.7 198.3 849.4 198.3z" class="c"/></svg>